# xmcd
#
# Track frame offsets:
# 150
# 25521
# 41526
# 59359
# 78169
# 97219
# 114392
# 128554
# 146884
# 163118
# 179458
# 200022
# 219257
# 238543
# 257353
#
# Disc length: 3618 seconds
#
# Revision: 0
# Processed by: cddbd v1.4PL0 Copyright (c) Steve Scherf et al.
# Submitted via: Audion 2.6.0 (http://www.panic.com/audion/)
#
DISCID=ca0e200f
DTITLE=Fait Hill - Breath
DYEAR=1900
DGENRE=
TTITLE0=1
TTITLE1=2
TTITLE2=3
TTITLE3=5
TTITLE4=4
TTITLE5=6
TTITLE6=7
TTITLE7=9
TTITLE8=8
TTITLE9=0
TTITLE10=11
TTITLE11=12
TTITLE12=13
TTITLE13=14
TTITLE14=15
EXTD=
EXTT0=
EXTT1=
EXTT2=
EXTT3=
EXTT4=
EXTT5=
EXTT6=
EXTT7=
EXTT8=
EXTT9=
EXTT10=
EXTT11=
EXTT12=
EXTT13=
EXTT14=
PLAYORDER=
